<mxfile host="app.diagrams.net" modified="2023-06-24T22:06:44.035Z" agent="Mozilla/5.0 (Windows NT 10.0; Win64; x64) AppleWebKit/537.36 (KHTML, like Gecko) Chrome/114.0.0.0 Safari/537.36" etag="PD7ys4yXVYWF_tNkIs_a" version="21.5.0" type="device">
  <diagram name="Page-1" id="Obl1R_kmaVoqBGt_XD5k">
    <mxGraphModel dx="1050" dy="541" grid="0" gridSize="10" guides="1" tooltips="1" connect="1" arrows="1" fold="1" page="1" pageScale="1" pageWidth="850" pageHeight="1100" math="0" shadow="0">
      <root>
        <mxCell id="0" />
        <mxCell id="1" parent="0" />
        <mxCell id="flZOhQEEA5DJ8OjQoebT-3" value="" style="strokeColor=#BAC8D3;shadow=1;strokeWidth=1;rounded=1;absoluteArcSize=1;arcSize=2;fillColor=#09555B;labelBackgroundColor=none;fontColor=#EEEEEE;" vertex="1" parent="1">
          <mxGeometry x="203" y="247" width="100" height="60" as="geometry" />
        </mxCell>
        <mxCell id="flZOhQEEA5DJ8OjQoebT-4" value="Jobs&#xa;API" style="editableCssRules=.*;html=1;fontColor=#EEEEEE;shape=image;verticalLabelPosition=middle;labelBackgroundColor=none;verticalAlign=middle;labelPosition=right;align=left;spacingLeft=20;part=1;points=[];imageAspect=0;image=data:image/svg+xml,PHN2ZyB4bWxucz0iaHR0cDovL3d3dy53My5vcmcvMjAwMC9zdmciIHhtbG5zOnY9Imh0dHBzOi8vdmVjdGEuaW8vbmFubyIgd2lkdGg9IjE5LjkyMTQ0MjAzMTg2MDM1IiBoZWlnaHQ9IjE5Ljc3ODMyMDMxMjUiIHZpZXdCb3g9Ii0wLjAwMDQ0MTU1NzE3NDc4MTMzNzQgMC4yNSAxOS45MjE0NDIwMzE4NjAzNSAxOS43NzgzMjAzMTI1Ij4mI3hhOwk8c3R5bGUgdHlwZT0idGV4dC9jc3MiPiYjeGE7CS5zdDB7ZmlsbDojNDI4NWY0O30mI3hhOwkuc3Qxe2ZpbGw6I2FlY2JmYTt9JiN4YTsJLnN0MntmaWxsLXJ1bGU6ZXZlbm9kZH0mI3hhOwkuc3Qze2ZpbGw6IzY2OWRmNjt9JiN4YTsJPC9zdHlsZT4mI3hhOwk8cGF0aCBjbGFzcz0ic3QwIiBkPSJNNC40NjEgMTYuMjRhMyAzIDAgMSAxIDAtNiAzIDMgMCAxIDEgMCA2em0zLjYzLS40YTQuNDMgNC40MyAwIDAgMC01LjA0OS02LjcxNEE0LjQzIDQuNDMgMCAwIDAgLjAxMSAxMy4zMmE0LjkxIDQuOTEgMCAwIDAgMCAuNjcgMy40MyAzLjQzIDAgMCAwIC4wOS40NGwuMDYuMjFhNC41OSA0LjU5IDAgMCAwIC4zNC43OSA0LjI0IDQuMjQgMCAwIDAgLjc2IDFsLjE1LjE1LjMzLjI3YTQuMTYgNC4xNiAwIDAgMCAuNzMuNDQgNC40NCA0LjQ0IDAgMCAwIDQuNTQtLjI5bDIuOTMgMi45M2EuMzMuMzMgMCAwIDAgLjQ3IDBsLjY2LS42NWEuMzMuMzMgMCAwIDAgMC0uNDd6Ii8+JiN4YTsJPHBhdGggY2xhc3M9InN0MSIgZD0iTTkuODExIDE0LjU4YTUuNDEgNS40MSAwIDAgMCAuMi0xLjUxIDUuNTMgNS41MyAwIDAgMC01LjYxLTUuNDIgNS44MiA1LjgyIDAgMCAwLTEuOTIuMzVWMy44M2EuNjIuNjIgMCAwIDEgLjYyLS42MmgxNi4xOWEuNjMuNjMgMCAwIDEgLjYzLjYyVjE0YS42My42MyAwIDAgMS0uNjMuNjN6Ii8+JiN4YTsJPGcgY2xhc3M9InN0MiI+JiN4YTsJCTxwYXRoIGNsYXNzPSJzdDMiIGQ9Ik0xMy41OTEgMy4yMVYxLjczaC00LjQ0djEuNDhoLTEuNDlWLjg3YS42My42MyAwIDAgMSAuNjMtLjYyaDYuMTZhLjYyLjYyIDAgMCAxIC42Mi42MnYyLjM0eiIvPiYjeGE7CQk8cGF0aCBjbGFzcz0ic3QwIiBkPSJNMTUuMDcxIDMuMjFoLTEuNDhsMS40OC0uNDd6bS01LjkzIDBoLTEuNDlsMS40OS0uNTR6Ii8+JiN4YTsJPC9nPiYjeGE7PC9zdmc+;fillColor=#09555B;strokeColor=#BAC8D3;" vertex="1" parent="flZOhQEEA5DJ8OjQoebT-3">
          <mxGeometry width="30" height="30" relative="1" as="geometry">
            <mxPoint x="15" y="15" as="offset" />
          </mxGeometry>
        </mxCell>
        <mxCell id="flZOhQEEA5DJ8OjQoebT-6" value="" style="image;sketch=0;aspect=fixed;html=1;points=[];align=center;fontSize=12;image=img/lib/mscae/SchedulerJobCollection.svg;labelBackgroundColor=none;fillColor=#09555B;strokeColor=#BAC8D3;fontColor=#EEEEEE;" vertex="1" parent="1">
          <mxGeometry x="51" y="253" width="73.26" height="63" as="geometry" />
        </mxCell>
        <mxCell id="flZOhQEEA5DJ8OjQoebT-7" value="" style="sketch=0;outlineConnect=0;fontColor=#EEEEEE;fillColor=#09555B;strokeColor=none;dashed=0;verticalLabelPosition=bottom;verticalAlign=top;align=center;html=1;fontSize=12;fontStyle=0;aspect=fixed;pointerEvents=1;shape=mxgraph.aws4.bucket;labelBackgroundColor=none;" vertex="1" parent="1">
          <mxGeometry x="391" y="234" width="75" height="78" as="geometry" />
        </mxCell>
        <mxCell id="flZOhQEEA5DJ8OjQoebT-9" value="" style="sketch=0;outlineConnect=0;fontColor=#EEEEEE;fillColor=#09555B;strokeColor=none;dashed=0;verticalLabelPosition=bottom;verticalAlign=top;align=center;html=1;fontSize=12;fontStyle=0;aspect=fixed;pointerEvents=1;shape=mxgraph.aws4.bucket;labelBackgroundColor=none;" vertex="1" parent="1">
          <mxGeometry x="551" y="234" width="75" height="78" as="geometry" />
        </mxCell>
        <mxCell id="flZOhQEEA5DJ8OjQoebT-23" style="edgeStyle=orthogonalEdgeStyle;rounded=0;orthogonalLoop=1;jettySize=auto;html=1;entryX=1;entryY=0.5;entryDx=0;entryDy=0;entryPerimeter=0;labelBackgroundColor=none;strokeColor=#0B4D6A;fontColor=default;" edge="1" parent="1" source="flZOhQEEA5DJ8OjQoebT-11" target="flZOhQEEA5DJ8OjQoebT-12">
          <mxGeometry relative="1" as="geometry">
            <Array as="points">
              <mxPoint x="739" y="461" />
            </Array>
          </mxGeometry>
        </mxCell>
        <mxCell id="flZOhQEEA5DJ8OjQoebT-11" value="" style="sketch=0;points=[[0,0,0],[0.25,0,0],[0.5,0,0],[0.75,0,0],[1,0,0],[0,1,0],[0.25,1,0],[0.5,1,0],[0.75,1,0],[1,1,0],[0,0.25,0],[0,0.5,0],[0,0.75,0],[1,0.25,0],[1,0.5,0],[1,0.75,0]];outlineConnect=0;fontColor=#EEEEEE;gradientDirection=north;fillColor=#09555B;strokeColor=#BAC8D3;dashed=0;verticalLabelPosition=bottom;verticalAlign=top;align=center;html=1;fontSize=12;fontStyle=0;aspect=fixed;shape=mxgraph.aws4.resourceIcon;resIcon=mxgraph.aws4.redshift;labelBackgroundColor=none;" vertex="1" parent="1">
          <mxGeometry x="710" y="239" width="78" height="78" as="geometry" />
        </mxCell>
        <mxCell id="flZOhQEEA5DJ8OjQoebT-14" value="" style="edgeStyle=orthogonalEdgeStyle;rounded=0;orthogonalLoop=1;jettySize=auto;html=1;entryX=0.432;entryY=0.967;entryDx=0;entryDy=0;entryPerimeter=0;labelBackgroundColor=none;strokeColor=#0B4D6A;fontColor=default;" edge="1" parent="1" source="flZOhQEEA5DJ8OjQoebT-12" target="flZOhQEEA5DJ8OjQoebT-6">
          <mxGeometry relative="1" as="geometry">
            <mxPoint x="32" y="267" as="targetPoint" />
          </mxGeometry>
        </mxCell>
        <mxCell id="flZOhQEEA5DJ8OjQoebT-12" value="" style="sketch=0;points=[[0,0,0],[0.25,0,0],[0.5,0,0],[0.75,0,0],[1,0,0],[0,1,0],[0.25,1,0],[0.5,1,0],[0.75,1,0],[1,1,0],[0,0.25,0],[0,0.5,0],[0,0.75,0],[1,0.25,0],[1,0.5,0],[1,0.75,0]];outlineConnect=0;fontColor=#EEEEEE;gradientDirection=north;fillColor=#09555B;strokeColor=#BAC8D3;dashed=0;verticalLabelPosition=bottom;verticalAlign=top;align=center;html=1;fontSize=12;fontStyle=0;aspect=fixed;shape=mxgraph.aws4.resourceIcon;resIcon=mxgraph.aws4.managed_workflows_for_apache_airflow;labelBackgroundColor=none;" vertex="1" parent="1">
          <mxGeometry x="358.5" y="422" width="78" height="78" as="geometry" />
        </mxCell>
        <mxCell id="flZOhQEEA5DJ8OjQoebT-17" value="" style="verticalLabelPosition=bottom;verticalAlign=top;html=1;strokeWidth=2;shape=mxgraph.arrows2.arrow;dy=0.6;dx=40;notch=0;labelBackgroundColor=none;fillColor=#09555B;strokeColor=#BAC8D3;fontColor=#EEEEEE;" vertex="1" parent="1">
          <mxGeometry x="306" y="242" width="90" height="70" as="geometry" />
        </mxCell>
        <mxCell id="flZOhQEEA5DJ8OjQoebT-21" value="" style="html=1;outlineConnect=0;whiteSpace=wrap;shape=mxgraph.archimate3.process;labelBackgroundColor=none;fillColor=#ffe6cc;strokeColor=#d79b00;" vertex="1" parent="1">
          <mxGeometry x="457" y="239.5" width="97" height="75" as="geometry" />
        </mxCell>
        <mxCell id="flZOhQEEA5DJ8OjQoebT-22" value="" style="verticalLabelPosition=bottom;verticalAlign=top;html=1;strokeWidth=2;shape=mxgraph.arrows2.arrow;dy=0.6;dx=40;notch=0;labelBackgroundColor=none;fillColor=#09555B;strokeColor=#BAC8D3;fontColor=#EEEEEE;" vertex="1" parent="1">
          <mxGeometry x="618" y="245" width="92" height="70" as="geometry" />
        </mxCell>
        <mxCell id="flZOhQEEA5DJ8OjQoebT-46" value="" style="html=1;outlineConnect=0;whiteSpace=wrap;fillColor=#99ffff;shape=mxgraph.archimate3.process;strokeColor=#BAC8D3;fontColor=#EEEEEE;" vertex="1" parent="1">
          <mxGeometry x="124" y="244" width="79" height="75" as="geometry" />
        </mxCell>
      </root>
    </mxGraphModel>
  </diagram>
</mxfile>
